{"title":"Cara memutar file MP4 dengan AAC 5.1 melalui S / PDIF","draft":false,"url":"/cara-memutar-file-mp4-dengan-aac-51-melalui-s-pdif-2ywe9glc","votes":"4","answers_count":"2","categories":["Komputer"],"tags":["audio","mp4","aac","spdif","5.1"],"snippet":"Saya memiliki laptop dengan Windows 7 x64 dan a  Sound Blaster X-Fi Surround 5.1 Pro  . Saya menghubungkan output HDMI dari notebook ke LCD-TV saya dan soundcard eksternal ke receiver home-theater saya...","body":"<p> Saya memiliki laptop dengan Windows 7 x64 dan a <a href=\"http://us.store.creative.com/Creative-Sound-Blaster-XFi-Surround-5.1/M/B0044DEDCA.htm\" rel=\"nofollow noopener\" target=\"_blank\"> Sound Blaster X-Fi Surround 5.1 Pro </a> . Saya menghubungkan output HDMI dari notebook ke LCD-TV saya dan soundcard eksternal ke receiver home-theater saya melalui kabel audio optik (S / PDIF). </p>\n\n<p> Saya tidak punya masalah melihat video .mkv dengan 6 saluran DTS atau Dolby Digital. Tapi file ini adalah .mp4 dengan AAC 6 Channels. </p>\n\n<p> Masalahnya adalah saya hanya mendapatkan 2 saluran / stereo di receiver saya (ini menunjukkan PCM 48 dan hanya speaker kiri dan kanan yang ditampilkan di layar). Ketika saya mendapatkan 6 saluran, semua speaker ditampilkan di layar dan juga tertulis DTS atau Dolby Digital. </p>\n\n<p><strong> Ada ide bagaimana membuatnya bekerja? </strong> Saya tidak keberatan menginstal pemain lain atau codec eksternal lainnya untuk membuatnya berfungsi. </p>\n\n<p> Berikut MediaInfo yang ditunjukkan oleh MPC-HC. </p> <pre><code>Format                           : MPEG-4\nFormat profile                   : Base Media\nCodec ID                         : isom\nFile size                        : 2.00 GiB\nDuration                         : 2h 5mn\nOverall bit rate                 : 2 278 Kbps\nEncoded date                     : UTC 2010-01-23 21:34:19\nTagged date                      : UTC 2010-01-23 21:34:19\nWriting application              : Yamb 2.1.0.0 [http://yamb.unite-video.com]\n\nVideo\nID                               : 1\nFormat                           : AVC\nFormat/Info                      : Advanced Video Codec\nFormat profile                   : High@L4.1\nFormat settings, CABAC           : Yes\nFormat settings, ReFrames        : 4 frames\nCodec ID                         : avc1\nCodec ID/Info                    : Advanced Video Coding\nDuration                         : 2h 5mn\nBit rate                         : 1 951 Kbps\nMaximum bit rate                 : 9 358 Kbps\nWidth                            : 1 280 pixels\nHeight                           : 544 pixels\nDisplay aspect ratio             : 2.35:1\nFrame rate mode                  : Constant\nFrame rate                       : 23.976 fps\nColor space                      : YUV\nChroma subsampling               : 4:2:0\nBit depth                        : 8 bits\nScan type                        : Progressive\nBits/(Pixel*Frame)               : 0.117\nStream size                      : 1.71 GiB (85%)\nWriting library                  : x264 core 67 r1145bm d2e1e1c\nEncoding settings                : cabac=1 / ref=4 / deblock=1:-3:0 / analyse=0x3:0x133 / me=umh / subme=7 / psy_rd=0.0:0.0 / mixed_ref=1 / me_range=32 / chroma_me=1 / trellis=2 / 8x8dct=1 / cqm=2 / deadzone=21,11 / chroma_qp_offset=0 / threads=2 / thread_queue=2 / nr=0 / decimate=1 / mbaff=0 / bframes=3 / b_pyramid=1 / b_adapt=2 / b_bias=0 / direct=3 / wpredb=1 / keyint=250 / keyint_min=25 / scenecut=40 / rc=2pass / bitrate=1951 / ratetol=1.0 / qcomp=0.60 / qpmin=10 / qpmax=51 / qpstep=4 / cplxblur=20.0 / qblur=0.5 / ip_ratio=1.40 / pb_ratio=1.30 / aq=1:1.00\nEncoded date                     : UTC 2010-01-23 21:34:19\nTagged date                      : UTC 2010-01-23 21:37:59\n\nAudio\nID                               : 2\nFormat                           : AAC\nFormat/Info                      : Advanced Audio Codec\nFormat profile                   : LC\nCodec ID                         : 40\nDuration                         : 2h 5mn\nBit rate mode                    : Variable\nBit rate                         : 327 Kbps\nMaximum bit rate                 : 444 Kbps\nChannel(s)                       : 6 channels\nChannel positions                : Front: L C R, Side: L R, LFE\nSampling rate                    : 48.0 KHz\nCompression mode                 : Lossy\nStream size                      : 294 MiB (14%)\nEncoded date                     : UTC 2010-01-23 21:37:12\nTagged date                      : UTC 2010-01-23 21:37:59\n</code></pre>","source":"https://superuser.com/questions/390367/how-to-play-mp4-file-with-aac-5-1-through-s-pdif","author":"<a href=\"https://superuser.com/users/8342/empz\" target=\"_blank\" rel=\"nofollow noopener\"><span itemprop=\"name\">empz</span></a>","replies":[],"answers":[{"answer":"<p> Saya akhirnya melakukan ini: </p>\n\n<p> Instal ffdshow (32-bit), tambahkan ffdshow Audio Decoder ke &quot;Filter eksternal&quot; dari MPC HomeCinema, setel ke &quot;Lebih suka&quot;. Sekarang ffdshow Audio Decoder akan digunakan untuk memecahkan kode format audio apa pun yang didukungnya (misalnya AAC). Dalam konfigurasi Audio Decoder ffdshow&gt; Output, pastikan untuk memeriksa &quot;AC3 (mode enkode S / PDIF)&quot;. </p>\n\n<p> Saya bisa menjelaskan jika seseorang membutuhkan, tanyakan saja. </p>","votes":"5","source":"https://superuser.com/a/390852","author":"<a href=\"https://superuser.com/users/8342/empz\" target=\"_blank\" rel=\"nofollow noopener\"><span itemprop=\"name\">empz</span></a>","replies":[]},{"answer":"<p> Menindaklanjuti jawaban emzero (belum memiliki cukup poin untuk dibalas), Anda juga harus memastikan bahwa AAC dinonaktifkan (tidak dicentang) di bawah opsi MPC-HC&gt; Filter Internal&gt; Transform Filters. Jika tidak, filter eksternal tidak akan diaktifkan. </p>","votes":"1","source":"https://superuser.com/a/600290","author":"<a href=\"https://superuser.com/users/225226/toland-h\" target=\"_blank\" rel=\"nofollow noopener\"><span itemprop=\"name\">Toland H</span></a>","replies":[]}]}
